<svg width="3333" height="3333" xmlns="http://www.w3.org/2000/svg" clip-rule="evenodd">

 <g>
  <title>Layer 1</title>
  <path fill="#ffffff" id="svg_1" d="m1467,1354l322,0l0,165l5,0c45,-81 155,-165 318,-165c340,0 403,212 403,488l0,561l-336,0l0,-498c0,-119 -2,-271 -175,-271c-175,0 -202,129 -202,263l0,506l-336,0l0,-1049l1,0zm202,-1354c460,0 877,187 1179,488c302,302 488,718 488,1179c0,460 -187,877 -488,1179c-302,302 -718,488 -1179,488c-460,0 -877,-187 -1179,-488c-302,-302 -488,-718 -488,-1179c0,-460 187,-877 488,-1179c302,-302 718,-488 1179,-488zm1093,573c-280,-280 -666,-453 -1093,-453s-814,173 -1093,453c-280,280 -453,666 -453,1093s173,814 453,1093c280,280 666,453 1093,453s814,-173 1093,-453c280,-280 453,-666 453,-1093s-173,-814 -453,-1093zm-1528,490c0,97 -78,175 -175,175s-175,-78 -175,-175s78,-175 175,-175s175,78 175,175zm-350,291l350,0l0,1049l-350,0l0,-1049z"/>
 </g>
</svg>