<svg width="3333" height="3333" xmlns="http://www.w3.org/2000/svg" clip-rule="evenodd">

 <g>
  <title>Layer 1</title>
  <path fill="#ffffff" id="svg_1" d="m2341,978c-168,-169 -392,-262 -631,-262c-491,0 -891,400 -891,892c0,157 41,311 119,446l-127,462l473,-124c130,71 277,109 426,109c491,0 892,-400 892,-892c0,-238 -93,-462 -261,-631zm-675,-978c460,0 877,187 1179,488c302,302 488,718 488,1179c0,460 -187,877 -488,1179c-302,302 -718,488 -1179,488c-460,0 -877,-187 -1179,-488c-302,-302 -488,-718 -488,-1179c0,-460 187,-877 488,-1179c302,-302 718,-488 1179,-488zm1093,573c-280,-280 -666,-453 -1093,-453s-814,173 -1093,453c-280,280 -453,666 -453,1093s173,814 453,1093c280,280 666,453 1093,453s814,-173 1093,-453c280,-280 453,-666 453,-1093s-173,-814 -453,-1093zm-1049,1777c-133,0 -264,-36 -377,-103l-27,-16l-281,73l75,-273l-18,-28c-75,-118 -114,-254 -114,-394c0,-409 333,-741 742,-741c198,0 384,77 524,217s217,326 217,524c0,409 -333,742 -741,742l0,-1zm406,-555c-22,-11 -132,-65 -152,-72s-35,-11 -50,11s-58,72 -71,87s-26,17 -48,6s-94,-35 -179,-111c-66,-59 -111,-132 -124,-154s-1,-34 10,-45c10,-10 22,-26 33,-39s15,-22 22,-37s4,-28 -2,-39s-50,-121 -69,-166c-18,-44 -37,-38 -50,-38c-13,-1 -28,-1 -43,-1s-39,6 -59,28s-78,76 -78,186s80,215 91,231c11,15 157,240 381,336c53,23 95,37 127,47c53,17 102,14 140,9c43,-6 132,-54 151,-106s19,-97 13,-106c-5,-10 -20,-15 -43,-27z"/>
 </g>
</svg>